<svg xmlns="http://www.w3.org/2000/svg" xmlns:xlink="http://www.w3.org/1999/xlink" width="800" zoomAndPan="magnify" viewBox="0 0 600 209.999996" height="280" preserveAspectRatio="xMidYMid meet" version="1.2"><defs><clipPath id="812d3777c8"><path d="M 72.972656 70.347656 L 135.632812 70.347656 L 135.632812 133.007812 L 72.972656 133.007812 Z M 72.972656 70.347656 "/></clipPath><clipPath id="27e55910ed"><path d="M 76 74 L 132 74 L 132 129 L 76 129 Z M 76 74 "/></clipPath><clipPath id="164b48bb50"><path d="M 138.640625 82.03125 L 125.378906 134.945312 L 69.605469 120.964844 L 82.867188 68.050781 Z M 138.640625 82.03125 "/></clipPath><clipPath id="78c0399fa4"><path d="M 138.640625 82.03125 L 125.378906 134.945312 L 69.605469 120.964844 L 82.867188 68.050781 Z M 138.640625 82.03125 "/></clipPath><clipPath id="440c3b2394"><path d="M 138.640625 82.03125 L 125.378906 134.945312 L 69.605469 120.964844 L 82.867188 68.050781 Z M 138.640625 82.03125 "/></clipPath><clipPath id="54a4d32b33"><path d="M 4.167969 26.027344 L 34.640625 26.027344 L 34.640625 56.496094 L 4.167969 56.496094 Z M 4.167969 26.027344 "/></clipPath><clipPath id="dbe86f2dff"><path d="M 19.402344 26.027344 C 10.988281 26.027344 4.167969 32.847656 4.167969 41.261719 C 4.167969 49.675781 10.988281 56.496094 19.402344 56.496094 C 27.816406 56.496094 34.640625 49.675781 34.640625 41.261719 C 34.640625 32.847656 27.816406 26.027344 19.402344 26.027344 Z M 19.402344 26.027344 "/></clipPath><clipPath id="189e189ed7"><path d="M 52.476562 26.027344 L 82.945312 26.027344 L 82.945312 56.496094 L 52.476562 56.496094 Z M 52.476562 26.027344 "/></clipPath><clipPath id="4c5347b027"><path d="M 67.710938 26.027344 C 59.296875 26.027344 52.476562 32.847656 52.476562 41.261719 C 52.476562 49.675781 59.296875 56.496094 67.710938 56.496094 C 76.125 56.496094 82.945312 49.675781 82.945312 41.261719 C 82.945312 32.847656 76.125 26.027344 67.710938 26.027344 Z M 67.710938 26.027344 "/></clipPath><clipPath id="32f155cdb8"><path d="M 100.78125 26.027344 L 131.25 26.027344 L 131.25 56.496094 L 100.78125 56.496094 Z M 100.78125 26.027344 "/></clipPath><clipPath id="fedc7088f1"><path d="M 116.015625 26.027344 C 107.601562 26.027344 100.78125 32.847656 100.78125 41.261719 C 100.78125 49.675781 107.601562 56.496094 116.015625 56.496094 C 124.429688 56.496094 131.25 49.675781 131.25 41.261719 C 131.25 32.847656 124.429688 26.027344 116.015625 26.027344 Z M 116.015625 26.027344 "/></clipPath></defs><g id="6aa695ce8d"><g style="fill:#000000;fill-opacity:1;"><g transform="translate(-1.226676, 129.143591)"><path style="stroke:none" d="M 8.15625 0 L 8.15625 -55.984375 L 40.21875 -55.984375 L 40.21875 -49.421875 L 15.1875 -49.421875 L 15.1875 -30.0625 L 38.140625 -30.0625 L 38.140625 -23.59375 L 15.1875 -23.59375 L 15.1875 0 Z M 8.15625 0 "/></g></g><g style="fill:#000000;fill-opacity:1;"><g transform="translate(69.788945, 129.143591)"><path style="stroke:none" d=""/></g></g><g style="fill:#000000;fill-opacity:1;"><g transform="translate(116.012373, 129.143591)"><path style="stroke:none" d=""/></g></g><g style="fill:#000000;fill-opacity:1;"><g transform="translate(162.238158, 129.143591)"><path style="stroke:none" d="M 21.671875 0 L 21.671875 -49.265625 L 2.71875 -49.265625 L 2.71875 -55.984375 L 47.578125 -55.984375 L 47.578125 -49.265625 L 28.703125 -49.265625 L 28.703125 0 Z M 21.671875 0 "/></g></g><g style="fill:#000000;fill-opacity:1;"><g transform="translate(239.009664, 129.143591)"><path style="stroke:none" d="M 8.15625 0 L 8.15625 -55.984375 L 42.140625 -55.984375 L 42.140625 -49.421875 L 15.1875 -49.421875 L 15.1875 -31.75 L 40.140625 -31.75 L 40.140625 -25.265625 L 15.1875 -25.265625 L 15.1875 -6.5625 L 43.015625 -6.5625 L 43.015625 0 Z M 8.15625 0 "/></g></g><g style="fill:#ee440f;fill-opacity:1;"><g transform="translate(313.632683, 129.143591)"><path style="stroke:none" d="M 1.359375 0 L 24.390625 -55.984375 L 30.953125 -55.984375 L 53.984375 0 L 46.546875 0 L 41.265625 -12.71875 L 14 -12.71875 L 8.875 0 Z M 16.71875 -19.265625 L 38.625 -19.265625 L 27.671875 -46.140625 Z M 16.71875 -19.265625 "/></g></g><g style="fill:#ee440f;fill-opacity:1;"><g transform="translate(395.362262, 129.143591)"><path style="stroke:none" d="M 8.15625 0 L 8.15625 -55.984375 L 29.515625 -55.984375 C 33.398438 -55.984375 36.78125 -55.25 39.65625 -53.78125 C 42.539062 -52.3125 44.78125 -50.242188 46.375 -47.578125 C 47.976562 -44.910156 48.78125 -41.710938 48.78125 -37.984375 C 48.78125 -33.453125 47.609375 -29.707031 45.265625 -26.75 C 42.921875 -23.789062 39.695312 -21.804688 35.59375 -20.796875 L 49.65625 0 L 41.1875 0 L 27.515625 -20.078125 L 15.1875 -20.078125 L 15.1875 0 Z M 15.1875 -26.796875 L 28.703125 -26.796875 C 32.804688 -26.796875 35.976562 -27.765625 38.21875 -29.703125 C 40.457031 -31.648438 41.578125 -34.410156 41.578125 -37.984375 C 41.578125 -41.554688 40.457031 -44.328125 38.21875 -46.296875 C 35.976562 -48.273438 32.804688 -49.265625 28.703125 -49.265625 L 15.1875 -49.265625 Z M 15.1875 -26.796875 "/></g></g><g style="fill:#ee440f;fill-opacity:1;"><g transform="translate(476.212179, 129.143591)"><path style="stroke:none" d="M 21.671875 0 L 21.671875 -49.265625 L 2.71875 -49.265625 L 2.71875 -55.984375 L 47.578125 -55.984375 L 47.578125 -49.265625 L 28.703125 -49.265625 L 28.703125 0 Z M 21.671875 0 "/></g></g><g style="fill:#ee440f;fill-opacity:1;"><g transform="translate(552.983696, 129.143591)"><path style="stroke:none" d="M 8.15625 0 L 8.15625 -55.984375 L 42.140625 -55.984375 L 42.140625 -49.421875 L 15.1875 -49.421875 L 15.1875 -31.75 L 40.140625 -31.75 L 40.140625 -25.265625 L 15.1875 -25.265625 L 15.1875 -6.5625 L 43.015625 -6.5625 L 43.015625 0 Z M 8.15625 0 "/></g></g><g clip-rule="nonzero" clip-path="url(#812d3777c8)"><path style=" stroke:none;fill-rule:nonzero;fill:#000000;fill-opacity:1;" d="M 104.304688 133.007812 C 86.996094 133.007812 72.972656 118.886719 72.972656 101.675781 C 72.972656 84.464844 86.996094 70.347656 104.304688 70.347656 C 121.613281 70.347656 135.632812 84.367188 135.632812 101.675781 C 135.632812 118.984375 121.515625 133.007812 104.304688 133.007812 Z M 104.304688 72.28125 C 88.058594 72.28125 74.90625 85.429688 74.90625 101.675781 C 74.90625 117.921875 88.058594 131.070312 104.304688 131.070312 C 120.550781 131.070312 133.699219 117.921875 133.699219 101.675781 C 133.699219 85.429688 120.453125 72.28125 104.304688 72.28125 Z M 104.304688 72.28125 "/></g><g clip-rule="nonzero" clip-path="url(#27e55910ed)"><g clip-rule="nonzero" clip-path="url(#164b48bb50)"><g clip-rule="nonzero" clip-path="url(#78c0399fa4)"><g clip-rule="nonzero" clip-path="url(#440c3b2394)"><path style=" stroke:none;fill-rule:nonzero;fill:#000000;fill-opacity:1;" d="M 87.609375 100.515625 C 85.578125 96.734375 84.011719 92.773438 82.910156 88.632812 C 82.578125 87.515625 82.300781 86.371094 82.070312 85.207031 C 83.324219 83.527344 84.753906 82.011719 86.359375 80.660156 C 87.964844 79.308594 89.707031 78.152344 91.582031 77.203125 C 93.453125 76.25 95.414062 75.519531 97.457031 75.015625 C 99.503906 74.511719 101.578125 74.246094 103.6875 74.21875 C 102.761719 75.109375 101.851562 76.058594 100.988281 77.019531 C 97.894531 80.382812 95.21875 84.046875 92.957031 88.011719 C 90.699219 91.976562 88.917969 96.144531 87.609375 100.515625 Z M 96.722656 86.738281 C 101.152344 85.699219 105.648438 85.15625 110.207031 85.113281 C 114.761719 85.074219 119.269531 85.535156 123.726562 86.496094 C 124.996094 86.8125 126.261719 87.128906 127.503906 87.441406 C 126.582031 85.917969 125.519531 84.496094 124.316406 83.175781 C 123.113281 81.859375 121.792969 80.667969 120.355469 79.605469 C 118.917969 78.542969 117.390625 77.628906 115.777344 76.863281 C 114.160156 76.09375 112.484375 75.492188 110.753906 75.050781 C 109.597656 74.761719 108.429688 74.546875 107.246094 74.414062 C 106.371094 75.191406 105.519531 75.996094 104.703125 76.828125 C 101.65625 79.835938 98.992188 83.148438 96.714844 86.765625 Z M 127.089844 110.921875 C 127.476562 112.167969 127.859375 113.441406 128.160156 114.722656 C 129.167969 112.898438 129.957031 110.988281 130.527344 108.984375 C 131.09375 106.980469 131.425781 104.9375 131.523438 102.859375 C 131.617188 100.777344 131.476562 98.714844 131.097656 96.664062 C 130.714844 94.613281 130.105469 92.632812 129.269531 90.722656 C 128.128906 90.433594 127.027344 90 125.890625 89.6875 C 121.738281 88.585938 117.515625 87.945312 113.222656 87.769531 C 116.375 91.066406 119.121094 94.667969 121.460938 98.578125 C 123.800781 102.484375 125.675781 106.597656 127.089844 110.921875 Z M 107.417969 125.988281 C 106.554688 126.949219 105.644531 127.898438 104.71875 128.789062 C 106.828125 128.761719 108.902344 128.496094 110.949219 127.992188 C 112.992188 127.488281 114.953125 126.757812 116.824219 125.804688 C 118.699219 124.851562 120.441406 123.699219 122.046875 122.347656 C 123.652344 120.996094 125.082031 119.480469 126.335938 117.800781 C 126.105469 116.636719 125.828125 115.492188 125.496094 114.375 C 124.390625 110.234375 122.824219 106.273438 120.796875 102.492188 C 119.488281 106.863281 117.707031 111.03125 115.449219 114.996094 C 113.191406 118.960938 110.511719 122.625 107.417969 125.988281 Z M 80.648438 115.503906 C 81.574219 117.035156 82.644531 118.46875 83.851562 119.792969 C 85.0625 121.121094 86.386719 122.316406 87.832031 123.382812 C 89.277344 124.449219 90.816406 125.367188 92.441406 126.136719 C 94.066406 126.902344 95.75 127.503906 97.496094 127.945312 C 98.648438 128.234375 99.816406 128.445312 101 128.582031 C 101.863281 127.796875 102.710938 126.992188 103.546875 126.167969 C 106.558594 123.148438 109.1875 119.828125 111.429688 116.203125 C 107 117.246094 102.503906 117.789062 97.945312 117.828125 C 93.390625 117.871094 88.882812 117.410156 84.425781 116.449219 C 83.113281 116.308594 81.847656 115.992188 80.648438 115.503906 Z M 81.132812 92.066406 C 80.746094 90.820312 80.363281 89.546875 80.066406 88.265625 C 79.054688 90.089844 78.265625 92 77.699219 94.003906 C 77.128906 96.007812 76.796875 98.050781 76.699219 100.128906 C 76.605469 102.210938 76.746094 104.273438 77.125 106.324219 C 77.507812 108.375 78.117188 110.355469 78.953125 112.265625 C 80.09375 112.554688 81.195312 112.988281 82.332031 113.300781 C 86.484375 114.402344 90.707031 115.042969 95 115.21875 C 91.855469 111.921875 89.113281 108.320312 86.777344 104.414062 C 84.441406 100.507812 82.566406 96.394531 81.15625 92.074219 Z M 81.132812 92.066406 "/></g></g></g></g><path style="fill:none;stroke-width:2;stroke-linecap:butt;stroke-linejoin:miter;stroke:#000000;stroke-opacity:1;stroke-miterlimit:4;" d="M -0.00117045 0.997571 L 788.884296 0.997571 " transform="matrix(0.75,0,0,0.75,4.168847,144.306509)"/><g clip-rule="nonzero" clip-path="url(#54a4d32b33)"><g clip-rule="nonzero" clip-path="url(#dbe86f2dff)"><path style=" stroke:none;fill-rule:nonzero;fill:#ee440f;fill-opacity:1;" d="M 4.167969 26.027344 L 34.640625 26.027344 L 34.640625 56.496094 L 4.167969 56.496094 Z M 4.167969 26.027344 "/></g></g><g style="fill:#000000;fill-opacity:1;"><g transform="translate(190.84306, 177.019091)"><path style="stroke:none" d="M 3.09375 0 L 3.09375 -21.203125 L 10.265625 -21.203125 C 11.867188 -21.203125 13.257812 -20.910156 14.4375 -20.328125 C 15.613281 -19.742188 16.523438 -18.921875 17.171875 -17.859375 C 17.816406 -16.796875 18.140625 -15.539062 18.140625 -14.09375 C 18.140625 -12.632812 17.816406 -11.375 17.171875 -10.3125 C 16.523438 -9.25 15.613281 -8.425781 14.4375 -7.84375 C 13.257812 -7.257812 11.867188 -6.96875 10.265625 -6.96875 L 5.75 -6.96875 L 5.75 0 Z M 5.75 -9.453125 L 10.203125 -9.453125 C 13.679688 -9.453125 15.421875 -10.988281 15.421875 -14.0625 C 15.421875 -17.125 13.679688 -18.65625 10.203125 -18.65625 L 5.75 -18.65625 Z M 5.75 -9.453125 "/></g></g><g style="fill:#000000;fill-opacity:1;"><g transform="translate(217.169791, 177.019091)"><path style="stroke:none" d="M 0.515625 0 L 9.234375 -21.203125 L 11.71875 -21.203125 L 20.453125 0 L 17.625 0 L 15.640625 -4.8125 L 5.296875 -4.8125 L 3.359375 0 Z M 6.328125 -7.296875 L 14.640625 -7.296875 L 10.484375 -17.484375 Z M 6.328125 -7.296875 "/></g></g><g style="fill:#000000;fill-opacity:1;"><g transform="translate(245.102047, 177.019091)"><path style="stroke:none" d="M 3.09375 0 L 3.09375 -21.203125 L 11.171875 -21.203125 C 12.648438 -21.203125 13.929688 -20.925781 15.015625 -20.375 C 16.109375 -19.820312 16.957031 -19.039062 17.5625 -18.03125 C 18.175781 -17.019531 18.484375 -15.804688 18.484375 -14.390625 C 18.484375 -12.671875 18.035156 -11.25 17.140625 -10.125 C 16.253906 -9.007812 15.035156 -8.257812 13.484375 -7.875 L 18.8125 0 L 15.609375 0 L 10.421875 -7.609375 L 5.75 -7.609375 L 5.75 0 Z M 5.75 -10.15625 L 10.875 -10.15625 C 12.425781 -10.15625 13.625 -10.519531 14.46875 -11.25 C 15.320312 -11.988281 15.75 -13.035156 15.75 -14.390625 C 15.75 -15.742188 15.320312 -16.789062 14.46875 -17.53125 C 13.625 -18.28125 12.425781 -18.65625 10.875 -18.65625 L 5.75 -18.65625 Z M 5.75 -10.15625 "/></g></g><g style="fill:#000000;fill-opacity:1;"><g transform="translate(272.701086, 177.019091)"><path style="stroke:none" d="M 0.515625 0 L 9.234375 -21.203125 L 11.71875 -21.203125 L 20.453125 0 L 17.625 0 L 15.640625 -4.8125 L 5.296875 -4.8125 L 3.359375 0 Z M 6.328125 -7.296875 L 14.640625 -7.296875 L 10.484375 -17.484375 Z M 6.328125 -7.296875 "/></g></g><g style="fill:#000000;fill-opacity:1;"><g transform="translate(300.633343, 177.019091)"><path style="stroke:none" d="M 12.546875 0.390625 C 10.984375 0.390625 9.546875 0.117188 8.234375 -0.421875 C 6.921875 -0.960938 5.78125 -1.722656 4.8125 -2.703125 C 3.84375 -3.691406 3.085938 -4.851562 2.546875 -6.1875 C 2.015625 -7.53125 1.75 -9.003906 1.75 -10.609375 C 1.75 -12.203125 2.007812 -13.664062 2.53125 -15 C 3.0625 -16.332031 3.8125 -17.492188 4.78125 -18.484375 C 5.75 -19.472656 6.882812 -20.238281 8.1875 -20.78125 C 9.5 -21.332031 10.929688 -21.609375 12.484375 -21.609375 C 14.097656 -21.609375 15.59375 -21.3125 16.96875 -20.71875 C 18.34375 -20.132812 19.53125 -19.316406 20.53125 -18.265625 C 21.53125 -17.210938 22.25 -15.992188 22.6875 -14.609375 L 19.78125 -14.609375 C 19.113281 -15.972656 18.15625 -17.035156 16.90625 -17.796875 C 15.65625 -18.554688 14.210938 -18.9375 12.578125 -18.9375 C 10.992188 -18.9375 9.59375 -18.582031 8.375 -17.875 C 7.15625 -17.164062 6.203125 -16.1875 5.515625 -14.9375 C 4.828125 -13.6875 4.484375 -12.242188 4.484375 -10.609375 C 4.484375 -8.972656 4.832031 -7.523438 5.53125 -6.265625 C 6.226562 -5.015625 7.1875 -4.035156 8.40625 -3.328125 C 9.625 -2.617188 11.023438 -2.265625 12.609375 -2.265625 C 14.035156 -2.265625 15.304688 -2.546875 16.421875 -3.109375 C 17.535156 -3.679688 18.4375 -4.46875 19.125 -5.46875 C 19.820312 -6.46875 20.265625 -7.632812 20.453125 -8.96875 L 11.8125 -8.96875 L 11.8125 -11.515625 L 23.328125 -11.515625 C 23.367188 -9.191406 22.9375 -7.132812 22.03125 -5.34375 C 21.132812 -3.5625 19.875 -2.160156 18.25 -1.140625 C 16.625 -0.117188 14.722656 0.390625 12.546875 0.390625 Z M 12.546875 0.390625 "/></g></g><g style="fill:#000000;fill-opacity:1;"><g transform="translate(332.594583, 177.019091)"><path style="stroke:none" d="M 11.03125 0.359375 C 8.46875 0.359375 6.460938 -0.4375 5.015625 -2.03125 C 3.566406 -3.625 2.84375 -5.828125 2.84375 -8.640625 L 2.84375 -21.203125 L 5.484375 -21.203125 L 5.484375 -8.8125 C 5.484375 -6.65625 5.957031 -5.019531 6.90625 -3.90625 C 7.851562 -2.789062 9.226562 -2.234375 11.03125 -2.234375 C 14.726562 -2.234375 16.578125 -4.425781 16.578125 -8.8125 L 16.578125 -21.203125 L 19.234375 -21.203125 L 19.234375 -8.640625 C 19.234375 -5.828125 18.503906 -3.625 17.046875 -2.03125 C 15.597656 -0.4375 13.59375 0.359375 11.03125 0.359375 Z M 11.03125 0.359375 "/></g></g><g style="fill:#000000;fill-opacity:1;"><g transform="translate(361.647686, 177.019091)"><path style="stroke:none" d="M 0.515625 0 L 9.234375 -21.203125 L 11.71875 -21.203125 L 20.453125 0 L 17.625 0 L 15.640625 -4.8125 L 5.296875 -4.8125 L 3.359375 0 Z M 6.328125 -7.296875 L 14.640625 -7.296875 L 10.484375 -17.484375 Z M 6.328125 -7.296875 "/></g></g><g style="fill:#000000;fill-opacity:1;"><g transform="translate(389.579955, 177.019091)"><path style="stroke:none" d="M 8.484375 0 L 8.484375 -7.640625 L 0.515625 -21.203125 L 3.609375 -21.203125 L 7.0625 -15.265625 L 9.8125 -10.484375 L 16.0625 -21.203125 L 19.0625 -21.203125 L 11.09375 -7.640625 L 11.09375 0 Z M 8.484375 0 "/></g></g><g clip-rule="nonzero" clip-path="url(#189e189ed7)"><g clip-rule="nonzero" clip-path="url(#4c5347b027)"><path style=" stroke:none;fill-rule:nonzero;fill:#686768;fill-opacity:1;" d="M 52.476562 26.027344 L 82.945312 26.027344 L 82.945312 56.496094 L 52.476562 56.496094 Z M 52.476562 26.027344 "/></g></g><g clip-rule="nonzero" clip-path="url(#32f155cdb8)"><g clip-rule="nonzero" clip-path="url(#fedc7088f1)"><path style=" stroke:none;fill-rule:nonzero;fill:#000000;fill-opacity:1;" d="M 100.78125 26.027344 L 131.25 26.027344 L 131.25 56.496094 L 100.78125 56.496094 Z M 100.78125 26.027344 "/></g></g></g></svg>