<svg xmlns="http://www.w3.org/2000/svg" xmlns:xlink="http://www.w3.org/1999/xlink" width="800" zoomAndPan="magnify" viewBox="0 0 600 74.999997" height="100" preserveAspectRatio="xMidYMid meet" version="1.2"><defs><clipPath id="a8747d3171"><path d="M 69.183594 5.894531 L 131.433594 5.894531 L 131.433594 68.144531 L 69.183594 68.144531 Z M 69.183594 5.894531 "/></clipPath><clipPath id="13c4855d84"><path d="M 73 9 L 128 9 L 128 65 L 73 65 Z M 73 9 "/></clipPath><clipPath id="bf8d3a76ee"><path d="M 134.710938 17.453125 L 121.402344 70.5625 L 66.113281 56.703125 L 79.421875 3.597656 Z M 134.710938 17.453125 "/></clipPath><clipPath id="940c63db88"><path d="M 134.710938 17.453125 L 121.402344 70.5625 L 66.113281 56.703125 L 79.421875 3.597656 Z M 134.710938 17.453125 "/></clipPath></defs><g id="5cb48d5964"><g style="fill:#fdf9f8;fill-opacity:1;"><g transform="translate(-5.791409, 63.461878)"><path style="stroke:none" d="M 9.09375 0 L 9.09375 -56.34375 L 40.171875 -56.34375 L 40.171875 -51.765625 L 14 -51.765625 L 14 -29.625 L 38.078125 -29.625 L 38.078125 -25.109375 L 14 -25.109375 L 14 0 Z M 9.09375 0 "/></g></g><g style="fill:#fdf9f8;fill-opacity:1;"><g transform="translate(65.867915, 63.461878)"><path style="stroke:none" d=""/></g></g><g style="fill:#fdf9f8;fill-opacity:1;"><g transform="translate(114.009233, 63.461878)"><path style="stroke:none" d=""/></g></g><g style="fill:#fdf9f8;fill-opacity:1;"><g transform="translate(162.168386, 63.461878)"><path style="stroke:none" d="M 22.453125 0 L 22.453125 -51.6875 L 3.0625 -51.6875 L 3.0625 -56.34375 L 46.765625 -56.34375 L 46.765625 -51.6875 L 27.296875 -51.6875 L 27.296875 0 Z M 22.453125 0 "/></g></g><g style="fill:#fdf9f8;fill-opacity:1;"><g transform="translate(238.561518, 63.461878)"><path style="stroke:none" d="M 9.09375 0 L 9.09375 -56.34375 L 42.265625 -56.34375 L 42.265625 -51.765625 L 14 -51.765625 L 14 -31 L 40.171875 -31 L 40.171875 -26.484375 L 14 -26.484375 L 14 -4.59375 L 43.140625 -4.59375 L 43.140625 0 Z M 9.09375 0 "/></g></g><g style="fill:#ee440f;fill-opacity:1;"><g transform="translate(314.166152, 63.461878)"><path style="stroke:none" d="M 1.765625 0 L 25.109375 -56.34375 L 29.78125 -56.34375 L 53.125 0 L 47.984375 0 L 42.09375 -14.171875 L 12.796875 -14.171875 L 7 0 Z M 14.734375 -18.671875 L 40.25 -18.671875 L 27.453125 -49.671875 Z M 14.734375 -18.671875 "/></g></g><g style="fill:#ee440f;fill-opacity:1;"><g transform="translate(395.710613, 63.461878)"><path style="stroke:none" d="M 9.09375 0 L 9.09375 -56.34375 L 29.953125 -56.34375 C 33.753906 -56.34375 37.050781 -55.617188 39.84375 -54.171875 C 42.632812 -52.722656 44.804688 -50.695312 46.359375 -48.09375 C 47.921875 -45.488281 48.703125 -42.390625 48.703125 -38.796875 C 48.703125 -34.128906 47.410156 -30.28125 44.828125 -27.25 C 42.253906 -24.21875 38.742188 -22.328125 34.296875 -21.578125 L 49.59375 0 L 43.71875 0 L 28.578125 -21.171875 L 14 -21.171875 L 14 0 Z M 14 -25.84375 L 29.46875 -25.84375 C 33.914062 -25.84375 37.398438 -26.992188 39.921875 -29.296875 C 42.453125 -31.609375 43.71875 -34.773438 43.71875 -38.796875 C 43.71875 -42.773438 42.453125 -45.914062 39.921875 -48.21875 C 37.398438 -50.53125 33.914062 -51.6875 29.46875 -51.6875 L 14 -51.6875 Z M 14 -25.84375 "/></g></g><g style="fill:#ee440f;fill-opacity:1;"><g transform="translate(477.335555, 63.461878)"><path style="stroke:none" d="M 22.453125 0 L 22.453125 -51.6875 L 3.0625 -51.6875 L 3.0625 -56.34375 L 46.765625 -56.34375 L 46.765625 -51.6875 L 27.296875 -51.6875 L 27.296875 0 Z M 22.453125 0 "/></g></g><g style="fill:#ee440f;fill-opacity:1;"><g transform="translate(553.728687, 63.461878)"><path style="stroke:none" d="M 9.09375 0 L 9.09375 -56.34375 L 42.265625 -56.34375 L 42.265625 -51.765625 L 14 -51.765625 L 14 -31 L 40.171875 -31 L 40.171875 -26.484375 L 14 -26.484375 L 14 -4.59375 L 43.140625 -4.59375 L 43.140625 0 Z M 9.09375 0 "/></g></g><g clip-rule="nonzero" clip-path="url(#a8747d3171)"><path style=" stroke:none;fill-rule:nonzero;fill:#fdf9f8;fill-opacity:1;" d="M 100.304688 68.132812 C 83.113281 68.132812 69.183594 54.109375 69.183594 37.011719 C 69.183594 19.917969 83.113281 5.894531 100.304688 5.894531 C 117.496094 5.894531 131.421875 19.820312 131.421875 37.011719 C 131.421875 54.203125 117.402344 68.132812 100.304688 68.132812 Z M 100.304688 7.8125 C 84.167969 7.8125 71.105469 20.875 71.105469 37.011719 C 71.105469 53.148438 84.167969 66.210938 100.304688 66.210938 C 116.441406 66.210938 129.503906 53.148438 129.503906 37.011719 C 129.503906 20.875 116.34375 7.8125 100.304688 7.8125 Z M 100.304688 7.8125 "/></g><g clip-rule="nonzero" clip-path="url(#13c4855d84)"><g clip-rule="nonzero" clip-path="url(#bf8d3a76ee)"><g clip-rule="nonzero" clip-path="url(#940c63db88)"><path style=" stroke:none;fill-rule:nonzero;fill:#fdf9f8;fill-opacity:1;" d="M 84.074219 35.980469 C 82.066406 32.210938 80.515625 28.261719 79.429688 24.132812 C 79.105469 23.015625 78.828125 21.878906 78.601562 20.71875 C 79.847656 19.039062 81.269531 17.523438 82.863281 16.171875 C 84.460938 14.824219 86.1875 13.671875 88.046875 12.714844 C 89.90625 11.761719 91.851562 11.035156 93.878906 10.527344 C 95.90625 10.023438 97.96875 9.753906 100.058594 9.722656 C 99.140625 10.613281 98.234375 11.5625 97.378906 12.523438 C 94.304688 15.878906 91.640625 19.539062 89.398438 23.496094 C 87.152344 27.457031 85.375 31.617188 84.074219 35.980469 Z M 93.132812 22.222656 C 97.527344 21.175781 101.988281 20.628906 106.507812 20.582031 C 111.027344 20.535156 115.496094 20.984375 119.914062 21.9375 C 121.167969 22.25 122.425781 22.566406 123.65625 22.875 C 122.742188 21.355469 121.691406 19.941406 120.5 18.625 C 119.308594 17.3125 118 16.128906 116.578125 15.070312 C 115.15625 14.011719 113.644531 13.101562 112.042969 12.339844 C 110.441406 11.578125 108.78125 10.980469 107.0625 10.542969 C 105.917969 10.253906 104.761719 10.042969 103.589844 9.914062 C 102.714844 10.691406 101.875 11.496094 101.0625 12.324219 C 98.035156 15.328125 95.390625 18.636719 93.125 22.246094 Z M 123.210938 46.296875 C 123.59375 47.539062 123.96875 48.808594 124.261719 50.085938 C 125.269531 48.265625 126.054688 46.359375 126.621094 44.359375 C 127.1875 42.359375 127.519531 40.324219 127.617188 38.246094 C 127.714844 36.171875 127.578125 34.113281 127.203125 32.070312 C 126.832031 30.023438 126.230469 28.050781 125.402344 26.144531 C 124.273438 25.859375 123.179688 25.425781 122.054688 25.117188 C 117.9375 24.027344 113.75 23.394531 109.492188 23.226562 C 112.613281 26.507812 115.332031 30.097656 117.644531 33.992188 C 119.960938 37.882812 121.816406 41.984375 123.210938 46.296875 Z M 103.675781 61.351562 C 102.820312 62.3125 101.917969 63.261719 101 64.152344 C 103.089844 64.121094 105.148438 63.851562 107.175781 63.347656 C 109.203125 62.839844 111.148438 62.113281 113.007812 61.160156 C 114.867188 60.203125 116.597656 59.050781 118.191406 57.703125 C 119.785156 56.351562 121.207031 54.835938 122.453125 53.15625 C 122.226562 51.996094 121.949219 50.859375 121.625 49.746094 C 120.53125 45.617188 118.984375 41.667969 116.980469 37.894531 C 115.679688 42.257812 113.90625 46.417969 111.660156 50.378906 C 109.414062 54.339844 106.753906 57.996094 103.675781 61.351562 Z M 77.144531 50.9375 C 78.0625 52.464844 79.121094 53.890625 80.316406 55.210938 C 81.515625 56.53125 82.828125 57.722656 84.261719 58.785156 C 85.691406 59.847656 87.214844 60.761719 88.824219 61.523438 C 90.4375 62.285156 92.105469 62.886719 93.835938 63.320312 C 94.980469 63.609375 96.136719 63.816406 97.308594 63.949219 C 98.164062 63.167969 99.007812 62.363281 99.835938 61.539062 C 102.828125 58.523438 105.441406 55.207031 107.671875 51.589844 C 103.277344 52.636719 98.816406 53.183594 94.296875 53.230469 C 89.777344 53.277344 85.308594 52.828125 80.890625 51.875 C 79.589844 51.734375 78.332031 51.421875 77.144531 50.9375 Z M 77.664062 27.5625 C 77.28125 26.316406 76.902344 25.046875 76.609375 23.769531 C 75.605469 25.589844 74.820312 27.5 74.253906 29.496094 C 73.6875 31.496094 73.355469 33.535156 73.253906 35.609375 C 73.15625 37.683594 73.292969 39.742188 73.667969 41.789062 C 74.042969 43.832031 74.644531 45.804688 75.46875 47.710938 C 76.601562 47.996094 77.695312 48.429688 78.820312 48.738281 C 82.9375 49.832031 87.125 50.460938 91.378906 50.632812 C 88.265625 47.347656 85.550781 43.757812 83.242188 39.867188 C 80.929688 35.972656 79.082031 31.875 77.6875 27.566406 Z M 77.664062 27.5625 "/></g></g></g></g></svg>