<svg xmlns="http://www.w3.org/2000/svg" xmlns:xlink="http://www.w3.org/1999/xlink" width="500" zoomAndPan="magnify" viewBox="0 0 375 374.999991" height="500" preserveAspectRatio="xMidYMid meet" version="1.0"><defs><clipPath id="93cd0d2a55"><path d="M 7.917969 8.835938 L 357 8.835938 L 357 358 L 7.917969 358 Z M 7.917969 8.835938 " clip-rule="nonzero"/></clipPath><clipPath id="941b6ed8f6"><path d="M 29 30 L 335 30 L 335 337 L 29 337 Z M 29 30 " clip-rule="nonzero"/></clipPath><clipPath id="80d2acfa98"><path d="M 374.691406 73.554688 L 298.429688 377.828125 L -5.847656 301.566406 L 70.417969 -2.710938 Z M 374.691406 73.554688 " clip-rule="nonzero"/></clipPath><clipPath id="3daadc4ebf"><path d="M 374.691406 73.554688 L 298.429688 377.828125 L -5.847656 301.566406 L 70.417969 -2.710938 Z M 374.691406 73.554688 " clip-rule="nonzero"/></clipPath><clipPath id="112707f796"><rect x="0" width="372" y="0" height="375"/></clipPath></defs><g transform="matrix(1, 0, 0, 1, 0, 0)"><g clip-path="url(#112707f796)"><g clip-path="url(#93cd0d2a55)"><path fill="#ee440f" d="M 182.089844 357.183594 C 85.867188 357.183594 7.917969 278.699219 7.917969 183.011719 C 7.917969 87.324219 85.867188 8.835938 182.089844 8.835938 C 278.316406 8.835938 356.265625 86.785156 356.265625 183.011719 C 356.265625 279.238281 277.777344 357.183594 182.089844 357.183594 Z M 182.089844 19.589844 C 91.777344 19.589844 18.667969 92.699219 18.667969 183.011719 C 18.667969 273.324219 91.777344 346.433594 182.089844 346.433594 C 272.402344 346.433594 345.511719 273.324219 345.511719 183.011719 C 345.511719 92.699219 271.867188 19.589844 182.089844 19.589844 Z M 182.089844 19.589844 " fill-opacity="1" fill-rule="nonzero"/></g><g clip-path="url(#941b6ed8f6)"><g clip-path="url(#80d2acfa98)"><g clip-path="url(#3daadc4ebf)"><path fill="#ee440f" d="M 90.105469 177.664062 C 78.8125 156.484375 70.113281 134.289062 64.011719 111.078125 C 62.179688 104.8125 60.628906 98.421875 59.363281 91.898438 C 62.851562 87.199219 66.597656 82.710938 70.601562 78.441406 C 74.605469 74.171875 78.84375 70.144531 83.308594 66.359375 C 87.773438 62.574219 92.445312 59.058594 97.3125 55.808594 C 102.183594 52.558594 107.222656 49.601562 112.433594 46.929688 C 117.644531 44.257812 122.988281 41.894531 128.46875 39.839844 C 133.953125 37.78125 139.53125 36.042969 145.210938 34.628906 C 150.894531 33.210938 156.636719 32.125 162.441406 31.367188 C 168.246094 30.609375 174.074219 30.1875 179.929688 30.097656 C 174.769531 35.109375 169.683594 40.441406 164.875 45.839844 C 156.261719 55.242188 148.207031 65.097656 140.707031 75.410156 C 133.207031 85.722656 126.308594 96.421875 120.019531 107.515625 C 113.726562 118.605469 108.082031 130.015625 103.082031 141.742188 C 98.078125 153.472656 93.753906 165.445312 90.105469 177.664062 Z M 141.003906 100.351562 C 153.324219 97.421875 165.765625 95.1875 178.332031 93.644531 C 190.898438 92.105469 203.511719 91.265625 216.171875 91.132812 C 228.832031 90.996094 241.460938 91.566406 254.058594 92.839844 C 266.65625 94.113281 279.144531 96.082031 291.519531 98.746094 C 298.582031 100.519531 305.644531 102.289062 312.566406 104.023438 C 310.003906 99.761719 307.238281 95.636719 304.273438 91.648438 C 301.308594 87.660156 298.160156 83.824219 294.820312 80.140625 C 291.480469 76.460938 287.96875 72.949219 284.289062 69.609375 C 280.605469 66.269531 276.769531 63.117188 272.78125 60.152344 C 268.792969 57.1875 264.667969 54.425781 260.410156 51.863281 C 256.148438 49.300781 251.777344 46.953125 247.289062 44.816406 C 242.800781 42.679688 238.21875 40.769531 233.542969 39.082031 C 228.867188 37.394531 224.121094 35.9375 219.304688 34.714844 C 212.875 33.09375 206.363281 31.914062 199.777344 31.171875 C 194.875 35.546875 190.140625 40.0625 185.570312 44.722656 C 168.566406 61.601562 153.699219 80.191406 140.96875 100.492188 Z M 310.050781 235.640625 C 312.199219 242.636719 314.3125 249.769531 315.96875 256.941406 C 318.78125 251.847656 321.296875 246.609375 323.511719 241.226562 C 325.726562 235.847656 327.625 230.355469 329.210938 224.757812 C 330.796875 219.160156 332.058594 213.488281 333 207.746094 C 333.9375 202 334.542969 196.222656 334.820312 190.410156 C 335.097656 184.597656 335.039062 178.789062 334.652344 172.984375 C 334.265625 167.175781 333.546875 161.410156 332.5 155.6875 C 331.453125 149.964844 330.082031 144.316406 328.386719 138.75 C 326.695312 133.183594 324.6875 127.730469 322.371094 122.390625 C 316.015625 120.800781 309.871094 118.359375 303.550781 116.625 C 280.414062 110.484375 256.882812 106.9375 232.960938 105.988281 C 241.703125 115.1875 249.898438 124.84375 257.558594 134.960938 C 265.21875 145.078125 272.289062 155.585938 278.773438 166.492188 C 285.257812 177.398438 291.113281 188.632812 296.34375 200.191406 C 301.570312 211.753906 306.140625 223.570312 310.050781 235.640625 Z M 200.273438 320.261719 C 195.46875 325.660156 190.378906 330.992188 185.21875 336.003906 C 191.074219 335.914062 196.902344 335.492188 202.707031 334.734375 C 208.511719 333.976562 214.257812 332.890625 219.9375 331.472656 C 225.617188 330.058594 231.199219 328.320312 236.679688 326.261719 C 242.160156 324.207031 247.503906 321.84375 252.714844 319.171875 C 257.925781 316.5 262.964844 313.542969 267.835938 310.292969 C 272.707031 307.042969 277.375 303.527344 281.839844 299.742188 C 286.308594 295.957031 290.542969 291.929688 294.546875 287.660156 C 298.550781 283.390625 302.296875 278.902344 305.789062 274.203125 C 304.519531 267.679688 302.96875 261.289062 301.136719 255.023438 C 295.003906 231.824219 286.304688 209.628906 275.042969 188.4375 C 271.394531 200.65625 267.070312 212.628906 262.070312 224.359375 C 257.066406 236.085938 251.421875 247.496094 245.128906 258.585938 C 238.839844 269.679688 231.945312 280.378906 224.445312 290.691406 C 216.945312 301.003906 208.886719 310.859375 200.273438 320.261719 Z M 51.171875 261.726562 C 53.742188 266.011719 56.515625 270.160156 59.492188 274.175781 C 62.46875 278.1875 65.636719 282.046875 68.992188 285.75 C 72.347656 289.453125 75.878906 292.980469 79.582031 296.335938 C 83.28125 299.695312 87.140625 302.863281 91.152344 305.839844 C 95.167969 308.816406 99.316406 311.589844 103.601562 314.160156 C 107.886719 316.730469 112.289062 319.085938 116.804688 321.226562 C 121.320312 323.363281 125.933594 325.277344 130.636719 326.960938 C 135.339844 328.648438 140.117188 330.101562 144.964844 331.316406 C 151.394531 332.9375 157.902344 334.117188 164.492188 334.859375 C 169.296875 330.460938 174.03125 325.941406 178.695312 321.308594 C 195.511719 304.355469 210.191406 285.714844 222.730469 265.394531 C 210.414062 268.324219 197.972656 270.558594 185.40625 272.101562 C 172.839844 273.644531 160.222656 274.480469 147.5625 274.617188 C 134.902344 274.75 122.273438 274.183594 109.679688 272.910156 C 97.082031 271.636719 84.59375 269.664062 72.21875 267 C 64.90625 266.21875 57.84375 264.449219 51.171875 261.726562 Z M 54.078125 130.355469 C 51.925781 123.359375 49.8125 116.226562 48.15625 109.054688 C 45.34375 114.148438 42.828125 119.386719 40.613281 124.769531 C 38.398438 130.148438 36.5 135.640625 34.914062 141.238281 C 33.328125 146.835938 32.066406 152.507812 31.128906 158.25 C 30.191406 163.992188 29.582031 169.773438 29.304688 175.585938 C 29.03125 181.398438 29.085938 187.207031 29.472656 193.011719 C 29.859375 198.820312 30.578125 204.582031 31.625 210.308594 C 32.675781 216.03125 34.042969 221.675781 35.738281 227.246094 C 37.429688 232.8125 39.4375 238.265625 41.753906 243.601562 C 48.109375 245.195312 54.253906 247.636719 60.574219 249.371094 C 83.710938 255.511719 107.242188 259.054688 131.164062 260.007812 C 122.4375 250.808594 114.253906 241.148438 106.605469 231.035156 C 98.960938 220.921875 91.902344 210.410156 85.429688 199.507812 C 78.957031 188.605469 73.113281 177.375 67.894531 165.820312 C 62.675781 154.265625 58.117188 142.453125 54.21875 130.390625 Z M 54.078125 130.355469 " fill-opacity="1" fill-rule="nonzero"/></g></g></g></g></g></svg>